<svg width="113.5734" height="18.719999" viewbox="0 0 113.5734 18.719999" xmlns="http://www.w3.org/2000/svg" fill="#FFF" class="h-6 w-auto"><path d="m 15.7773,18.2294 h 4.7138 L 12.0167,0.5178 H 8.8014 L 0,18.2294 h 4.7959 l 1.1989,-2.4252 h 8.5833 z m -8.0114,-5.8858 2.5069,-5.695 2.6431,5.695 z"></path><path d="m 38.3392,18.2294 -3.8967,-5.3408 c 1.8803,-1.008 3.1609,-2.8339 3.1609,-5.3953 0,-3.8691 -2.725,-6.9755 -6.3489,-6.9755 -2.0984,0 -8.6109,0 -8.6109,0 v 17.7116 h 4.3328 V 13.815 h 3.1064 l 2.9156,4.4144 z M 26.9764,4.8775 h 3.6239 c 1.4442,0 2.6161,1.1717 2.6161,2.6158 0,1.4714 -1.1991,2.4253 -2.6433,2.4253 v 0 h -3.5967 z"></path><path d="M 56.9503,0.5178 H 39.2384 v 3.8147 h 6.7305 v 13.8969 h 4.2509 V 4.3325 h 6.7305 z"></path><path d="m 62.6709,14.4709 v 3.7585 0 h 10.6289 v -3.7585 z"></path><path d="m 65.1262,7.4863 v 3.7123 H 73.295 V 7.4933 h -4.5677 v -0.007 z"></path><path d="M 73.2998,4.3325 V 0.5178 H 63.0419 v 0 3.8147 h 4.5194 z"></path><path d="m 59.975,0.5178 h 3.5532 V 18.2294 H 59.975 Z"></path><path fill="#FFF" d="m 92.8098,7.7114 h -9.1012 v 3.4061 h 5.3681 v 1.8528 c -0.9536,0.9811 -2.2889,1.6078 -3.7875,1.6078 -2.8886,0 -5.2592,-2.3434 -5.2592,-5.2317 0,-2.8883 2.3706,-5.2592 5.2592,-5.2592 1.7711,0 2.97,0.5722 4.06,1.5806 L 92.5917,3.5967 C 90.875,1.2806 88.3681,0 85.2892,0 c -5.1503,0 -9.3464,4.1964 -9.3464,9.3464 0,5.15 4.1961,9.3192 9.3464,9.3192 3.0789,0 5.8039,-1.4717 7.4933,-3.7606 h 0.0273 z"></path><path fill="#FFF" d="m 104.2542,0.0544 c -5.1772,0 -9.3464,4.1964 -9.3464,9.3464 0,5.15 4.1692,9.3192 9.3464,9.3192 5.1503,0 9.3192,-4.1692 9.3192,-9.3192 0,-5.15 -4.1689,-9.3464 -9.3192,-9.3464 z m 0,14.5781 c -2.9156,0 -5.2589,-2.3433 -5.2589,-5.2317 0,-2.8883 2.3433,-5.2591 5.2589,-5.2591 2.8886,0 5.232,2.3708 5.232,5.2591 0,2.8884 -2.3434,5.2317 -5.232,5.2317 z"></path></svg>